<svg id="Layer_1" data-name="Layer 1" xmlns="http://www.w3.org/2000/svg" viewBox="0 0 461.35 242.2"><defs><style>.cls-1{fill:#845e25;}.cls-2{fill:#cc4645;}.cls-3{fill:none;stroke:#181922;stroke-miterlimit:10;stroke-width:2px;}.cls-4{fill:#181922;}.cls-5,.cls-7{fill:#fff;}.cls-6{fill:#00aebc;}.cls-7{font-size:69.91px;}.cls-7,.cls-8{font-family:Poppins-BoldItalic, Poppins;font-weight:700;font-style:italic;}.cls-8{font-size:40px;fill:#e6e7e8;letter-spacing:0.2em;}</style></defs><path class="cls-1" d="M235.74,346.31v132.9a20,20,0,0,1-20,20H82.88a20,20,0,0,1-20-20V468.49H186.1c11,0,21.53-7.38,23.42-16.45l22.79-109.27A12.27,12.27,0,0,0,229.65,332,19.8,19.8,0,0,1,235.74,346.31Z" transform="translate(-36.36 -278.31)"/><path class="cls-2" d="M36.63,437.73l21-96.84c1.75-8,11.43-14.56,21.61-14.56H202c10.18,0,17,6.52,15.28,14.56l-21.06,96.84c-1.74,8-11.42,14.56-21.61,14.56H51.91C41.72,452.29,34.88,445.77,36.63,437.73Z" transform="translate(-36.36 -278.31)"/><polyline class="cls-3" points="75.09 22.1 102.35 58.61 145.67 6.52"/><path class="cls-4" d="M188.55,284.83a6.52,6.52,0,1,1-6.52-6.52A6.52,6.52,0,0,1,188.55,284.83Z" transform="translate(-36.36 -278.31)"/><circle class="cls-4" cx="75.09" cy="22.1" r="6.52"/><path class="cls-5" d="M163.33,386.82l-47.18-31.25a2.44,2.44,0,0,0-3.74,1.51L98.53,419.57a2.45,2.45,0,0,0,3.51,2.71L163.09,391A2.44,2.44,0,0,0,163.33,386.82Z" transform="translate(-36.36 -278.31)"/><path class="cls-6" d="M497.71,346.31,482.34,417a50.74,50.74,0,0,1-49.59,40h-197V346.31Z" transform="translate(-36.36 -278.31)"/><text class="cls-7" transform="translate(224.9 148.12)">MUVI</text><text class="cls-8" transform="translate(209.68 217.96)">WEBAPP</text></svg>